<?xml version="1.0" encoding="UTF-8"?>
<svg xmlns="http://www.w3.org/2000/svg" xmlns:xlink="http://www.w3.org/1999/xlink" width="20px" height="20px" viewBox="0 0 20 20" version="1.1">
<g id="surface1">
<path style=" stroke:none;fill-rule:nonzero;fill:rgb(0%,0%,0%);fill-opacity:1;" d="M 12.914062 12.714844 C 12.386719 12.714844 11.90625 13.023438 11.683594 13.5 C 11.53125 13.828125 11.515625 14.199219 11.640625 14.542969 C 11.765625 14.882812 12.011719 15.152344 12.335938 15.300781 C 12.511719 15.382812 12.703125 15.425781 12.898438 15.425781 C 13.429688 15.425781 13.914062 15.117188 14.136719 14.644531 C 14.453125 13.964844 14.160156 13.15625 13.484375 12.839844 C 13.304688 12.757812 13.113281 12.714844 12.914062 12.714844 Z M 12.914062 12.714844 "/>
<path style=" stroke:none;fill-rule:nonzero;fill:rgb(0%,0%,0%);fill-opacity:1;" d="M 19.199219 11.074219 C 19.105469 9.4375 18.019531 8.023438 16.546875 7.398438 C 16.273438 7.738281 15.984375 8.085938 15.6875 8.4375 C 16.902344 8.789062 17.863281 9.886719 17.9375 11.148438 C 17.980469 11.933594 17.757812 12.71875 17.210938 13.695312 C 16.171875 15.554688 13.457031 17.433594 10.285156 17.433594 C 9.527344 17.433594 8.78125 17.324219 8.0625 17.105469 C 7.917969 17.0625 7.78125 17.019531 7.640625 16.96875 C 7.621094 16.992188 7.601562 17.015625 7.578125 17.039062 C 7.378906 17.238281 7.113281 17.351562 6.832031 17.359375 L 6.46875 17.863281 C 6.863281 18.039062 7.273438 18.191406 7.695312 18.320312 C 8.53125 18.570312 9.40625 18.699219 10.285156 18.699219 C 11.953125 18.699219 13.628906 18.246094 15.132812 17.386719 C 16.523438 16.585938 17.652344 15.496094 18.316406 14.3125 C 18.734375 13.570312 19.277344 12.425781 19.199219 11.074219 Z M 19.199219 11.074219 "/>
<path style=" stroke:none;fill-rule:nonzero;fill:rgb(0%,0%,0%);fill-opacity:1;" d="M 5.703125 9.871094 C 5.523438 9.785156 5.328125 9.742188 5.128906 9.742188 C 4.601562 9.742188 4.117188 10.046875 3.894531 10.515625 C 3.738281 10.839844 3.722656 11.207031 3.847656 11.550781 C 3.972656 11.894531 4.21875 12.167969 4.546875 12.320312 C 4.730469 12.40625 4.925781 12.449219 5.125 12.449219 C 5.644531 12.449219 6.125 12.144531 6.347656 11.675781 C 6.667969 11.003906 6.375 10.191406 5.703125 9.871094 Z M 5.703125 9.871094 "/>
<path style=" stroke:none;fill-rule:nonzero;fill:rgb(0%,0%,0%);fill-opacity:1;" d="M 9.195312 5.96875 C 9.347656 5.296875 9.203125 4.636719 8.800781 4.148438 C 8.414062 3.683594 7.835938 3.425781 7.183594 3.425781 C 6.546875 3.425781 5.902344 3.667969 5.371094 4.109375 C 4.871094 4.527344 4.519531 5.078125 4.386719 5.667969 C 4.234375 6.335938 4.375 7 4.78125 7.488281 C 5.167969 7.953125 5.742188 8.210938 6.398438 8.210938 C 7.035156 8.210938 7.675781 7.96875 8.207031 7.523438 C 8.710938 7.109375 9.058594 6.554688 9.195312 5.96875 Z M 7.542969 6.726562 C 7.199219 7.011719 6.792969 7.171875 6.398438 7.171875 C 6.058594 7.171875 5.769531 7.046875 5.582031 6.820312 C 5.386719 6.585938 5.320312 6.25 5.402344 5.898438 C 5.484375 5.53125 5.710938 5.179688 6.035156 4.910156 C 6.382812 4.625 6.789062 4.464844 7.183594 4.464844 C 7.523438 4.464844 7.8125 4.589844 8 4.8125 C 8.195312 5.046875 8.261719 5.382812 8.179688 5.734375 C 8.097656 6.101562 7.871094 6.453125 7.542969 6.726562 Z M 7.542969 6.726562 "/>
<path style=" stroke:none;fill-rule:nonzero;fill:rgb(0%,0%,0%);fill-opacity:1;" d="M 3.148438 15.441406 L 4.183594 14.695312 C 4.183594 14.691406 4.183594 14.691406 4.183594 14.6875 C 2.9375 13.324219 2.171875 11.5625 2.070312 9.632812 C 1.996094 8.253906 2.292969 6.960938 3.0625 5.3125 C 3.859375 3.707031 5.371094 2.351562 7.210938 1.585938 C 7.726562 1.371094 8.207031 1.265625 8.675781 1.265625 C 9.078125 1.265625 9.460938 1.34375 9.84375 1.5 C 10.652344 1.835938 11.351562 2.5625 11.667969 3.398438 C 11.855469 3.902344 11.996094 4.683594 11.574219 5.554688 C 11.394531 5.914062 11.308594 6.371094 11.324219 6.832031 C 11.332031 7.019531 11.363281 7.195312 11.414062 7.355469 C 11.824219 6.980469 12.238281 6.609375 12.65625 6.246094 C 12.671875 6.195312 12.691406 6.148438 12.710938 6.105469 C 13.203125 5.097656 13.25 4.007812 12.851562 2.949219 C 12.410156 1.78125 11.464844 0.804688 10.328125 0.332031 C 9.796875 0.113281 9.242188 0 8.675781 0 C 8.046875 0 7.390625 0.140625 6.722656 0.417969 C 4.605469 1.296875 2.855469 2.878906 1.925781 4.753906 L 1.917969 4.769531 C 1.050781 6.621094 0.71875 8.097656 0.804688 9.699219 C 0.914062 11.691406 1.617188 13.554688 2.847656 15.085938 C 2.945312 15.207031 3.046875 15.324219 3.148438 15.441406 Z M 3.148438 15.441406 "/>
<path style=" stroke:none;fill-rule:nonzero;fill:rgb(0%,0%,0%);fill-opacity:1;" d="M 3.371094 19.542969 C 3.398438 19.566406 3.425781 19.59375 3.449219 19.621094 C 3.476562 19.648438 3.503906 19.675781 3.53125 19.703125 C 3.675781 19.847656 3.84375 20 4.027344 20 C 4.042969 20 4.058594 20 4.074219 19.996094 C 4.195312 19.980469 4.28125 19.890625 4.390625 19.742188 L 6.683594 16.722656 C 6.863281 16.769531 7.0625 16.722656 7.203125 16.582031 C 7.332031 16.453125 7.378906 16.277344 7.355469 16.109375 C 7.519531 16.136719 7.699219 16.085938 7.824219 15.957031 C 7.992188 15.792969 8.027344 15.542969 7.933594 15.34375 C 8.636719 14.804688 11.640625 11.90625 12.34375 11.199219 C 15.429688 8.117188 18.992188 3.640625 18.429688 3.078125 C 17.867188 2.519531 13.394531 6.082031 10.308594 9.164062 C 9.605469 9.867188 6.707031 12.875 6.167969 13.578125 C 5.964844 13.484375 5.71875 13.519531 5.550781 13.683594 C 5.421875 13.8125 5.375 13.988281 5.398438 14.15625 C 5.234375 14.128906 5.054688 14.179688 4.929688 14.308594 C 4.800781 14.433594 4.75 14.605469 4.773438 14.769531 L 1.75 17.113281 C 1.597656 17.226562 1.519531 17.34375 1.511719 17.472656 C 1.5 17.648438 1.617188 17.796875 1.75 17.925781 M 3.960938 19.105469 C 3.933594 19.082031 3.910156 19.054688 3.882812 19.03125 L 2.46875 17.617188 C 2.441406 17.589844 2.417969 17.5625 2.390625 17.539062 L 4.730469 15.691406 L 4.988281 15.949219 L 4.355469 16.761719 C 4.285156 16.851562 4.292969 16.976562 4.371094 17.054688 C 4.414062 17.101562 4.472656 17.125 4.535156 17.125 C 4.578125 17.125 4.625 17.113281 4.664062 17.085938 L 5.519531 16.480469 L 5.78125 16.742188 Z M 3.960938 19.105469 "/>
</g>
</svg>
